<svg xmlns="http://www.w3.org/2000/svg" width="33" height="28" fill="none"><path fill="#D87D4A" fill-rule="evenodd" d="M10.973 18.472h-.002c-.524.002-.95.415-.95.924 0 .509.428.923.953.923h17.265c.526 0 .953.414.953.924s-.427.924-.953.924H10.974c-1.575 0-2.857-1.243-2.857-2.771 0-1.137.71-2.116 1.722-2.543L6.401 1.848H1.452C.926 1.847.5 1.434.5.924S.926 0 1.452 0h5.713c.446 0 .833.3.93.723l.68 2.971h23.273c.299 0 .58.137.76.368.18.231.237.531.155.81l-3.808 12.93a.949.949 0 0 1-.916.67H10.973Zm16.548-1.847 3.264-11.083H9.198l2.54 11.083H27.52ZM12.687 28a2.913 2.913 0 0 1-2.901-2.917 2.913 2.913 0 0 1 2.902-2.916c1.6 0 2.901 1.308 2.901 2.916A2.913 2.913 0 0 1 12.687 28Zm.968-2.917a.971.971 0 0 0-.967-.972.971.971 0 0 0-.968.972c0 .536.434.973.967.973a.971.971 0 0 0 .968-.973Zm10.06 0A2.913 2.913 0 0 0 26.615 28c1.6 0 2.902-1.308 2.902-2.917a2.913 2.913 0 0 0-2.902-2.916 2.913 2.913 0 0 0-2.902 2.916Zm2.901-.972c.533 0 .967.436.967.972a.971.971 0 0 1-.967.973.971.971 0 0 1-.967-.973c0-.536.434-.972.967-.972Z" clip-rule="evenodd"/></svg>