<svg xmlns="http://www.w3.org/2000/svg" width="33" height="28" fill="none"><path fill="#fff" fill-rule="evenodd" d="M10.419 18.472h-.002a.936.936 0 0 0-.944.924c0 .509.425.923.947.923h17.177c.523 0 .947.414.947.924s-.424.924-.947.924H10.42c-1.567 0-2.842-1.243-2.842-2.771 0-1.137.706-2.116 1.713-2.543L5.871 1.848H.947A.936.936 0 0 1 0 .924C0 .414.424 0 .947 0h5.684c.444 0 .828.3.925.723l.677 2.971h23.153c.297 0 .577.137.756.368a.906.906 0 0 1 .155.81l-3.79 12.93a.944.944 0 0 1-.91.67H10.42Zm16.463-1.847L30.13 5.542H8.654l2.526 11.083h15.702ZM12.125 28c-1.592 0-2.887-1.308-2.887-2.917 0-1.608 1.295-2.916 2.887-2.916s2.887 1.308 2.887 2.916c0 1.609-1.295 2.917-2.887 2.917Zm.962-2.917a.969.969 0 0 0-.962-.972.969.969 0 0 0-.962.972c0 .536.431.973.962.973.53 0 .962-.437.962-.973Zm10.008 0c0 1.609 1.295 2.917 2.887 2.917s2.887-1.308 2.887-2.917c0-1.608-1.295-2.916-2.887-2.916s-2.887 1.308-2.887 2.916Zm2.887-.972c.53 0 .962.436.962.972a.969.969 0 0 1-.962.973.969.969 0 0 1-.962-.973c0-.536.432-.972.962-.972Z" clip-rule="evenodd"/></svg>